<svg width="35" height="16" viewBox="0 0 35 16" fill="none" xmlns="http://www.w3.org/2000/svg">
<path fill-rule="evenodd" clip-rule="evenodd" d="M7.06248 2.54031C6.66798 3.02676 6.03679 3.41044 5.40559 3.35562C5.32669 2.69789 5.63571 1.99906 5.99734 1.56742C6.39184 1.06727 7.08221 0.710999 7.64108 0.683594C7.70683 1.36873 7.45041 2.04016 7.06248 2.54031ZM7.63445 3.48579C7.07838 3.45244 6.57099 3.66006 6.16115 3.82775C5.89741 3.93567 5.67408 4.02705 5.50416 4.02705C5.31349 4.02705 5.08093 3.93078 4.81982 3.82269L4.81982 3.82269C4.47768 3.68106 4.08651 3.51913 3.67632 3.5269C2.7361 3.5406 1.86162 4.09556 1.38165 4.97939C0.395405 6.74704 1.12523 9.36426 2.0786 10.803C2.54542 11.5156 3.1043 12.2966 3.84069 12.2692C4.16466 12.2565 4.39771 12.1534 4.63889 12.0468C4.91655 11.924 5.205 11.7965 5.65539 11.7965C6.09016 11.7965 6.36599 11.9207 6.63077 12.0399C6.88254 12.1533 7.12431 12.2622 7.48323 12.2555C8.24593 12.2418 8.7259 11.543 9.19273 10.8304C9.6965 10.0657 9.91788 9.31935 9.95148 9.20608L9.95542 9.19297C9.95462 9.19213 9.94839 9.18917 9.93741 9.18393C9.769 9.10359 8.48182 8.48954 8.46948 6.84296C8.45708 5.46089 9.49044 4.76064 9.6531 4.65041C9.66301 4.6437 9.66968 4.63918 9.6727 4.63682C9.0152 3.62282 7.9895 3.5132 7.63445 3.48579ZM12.9142 12.1802V1.4989H16.7606C18.7462 1.4989 20.1335 2.92398 20.1335 5.00679C20.1335 7.08961 18.7199 8.52839 16.708 8.52839H14.5054V12.1802H12.9142ZM14.5052 2.89658H16.3396C17.7204 2.89658 18.5094 3.66393 18.5094 5.01365C18.5094 6.36336 17.7204 7.13757 16.3331 7.13757H14.5052V2.89658ZM25.387 10.899C24.9662 11.7348 24.0392 12.2624 23.0398 12.2624C21.5604 12.2624 20.5281 11.3443 20.5281 9.96033C20.5281 8.59006 21.5275 7.80215 23.3751 7.68568L25.3607 7.56236V6.97314C25.3607 6.10302 24.815 5.63027 23.8419 5.63027C23.0398 5.63027 22.4546 6.06191 22.3362 6.71964H20.9029C20.9489 5.33567 22.1982 4.32852 23.8879 4.32852C25.7092 4.32852 26.8927 5.32196 26.8927 6.86352V12.1802H25.4199V10.899H25.387ZM23.467 10.9949C22.6188 10.9949 22.0797 10.5701 22.0797 9.91923C22.0797 9.24779 22.5991 8.85727 23.5919 8.7956L25.3606 8.67913V9.28205C25.3606 10.2823 24.5453 10.9949 23.467 10.9949ZM31.7778 12.5981C31.1401 14.4685 30.4102 15.0851 28.8586 15.0851C28.7402 15.0851 28.3457 15.0714 28.2537 15.044V13.7628C28.3523 13.7765 28.5956 13.7902 28.7205 13.7902C29.424 13.7902 29.8185 13.4819 30.0618 12.6803L30.2064 12.2076L27.5107 4.43129H29.1742L31.048 10.7414H31.0809L32.9548 4.43129H34.5722L31.7778 12.5981Z" fill="black"/>
</svg>
