<svg width="149" height="145" viewBox="0 0 149 145" fill="none" xmlns="http://www.w3.org/2000/svg">
<path d="M113 91.6638C113 120.764 81.7185 144.354 52.644 144.354C23.5695 144.354 0 120.764 0 91.6638C0 62.564 10.4152 36.3535 39.4897 36.3535C68.5641 36.3535 113 62.564 113 91.6638Z" fill="#FEF6A3"/>
<mask id="mask0_251_13449" style="mask-type:alpha" maskUnits="userSpaceOnUse" x="0" y="0" width="132" height="145">
<path d="M105.145 91.7409C105.145 120.776 81.6078 144.314 52.5727 144.314C23.5376 144.314 0 120.776 0 91.7409C0 62.7058 92.4138 2.28959e-06 121.449 2.28959e-06C150.484 2.28959e-06 105.145 62.7058 105.145 91.7409Z" fill="#FFCB3C"/>
</mask>
<g mask="url(#mask0_251_13449)">
<path fill-rule="evenodd" clip-rule="evenodd" d="M46.311 84.703C43.0612 83.3396 39.3895 83.0681 35.3425 84.2525C21.5228 88.2967 15.8638 99.0658 15.107 111.895C14.0468 129.926 23.0423 152.123 31.0989 163.152C32.0407 164.44 33.849 164.72 35.1374 163.782C36.4228 162.84 36.7059 161.032 35.7642 159.743C28.294 149.517 19.8907 128.955 20.8758 112.235C21.4824 101.894 25.8271 93.0572 36.9659 89.7959C39.3751 89.091 41.5676 89.1893 43.5406 89.8826C42.8993 91.168 42.2869 92.4564 41.7062 93.7447C39.3866 98.904 35.9202 113.229 37.2143 123.761C38.2398 132.095 42.1771 138.072 50.3002 137.852C54.951 137.728 58.3829 134.918 60.4425 130.31C62.9817 124.628 63.3284 115.936 61.5431 107.602C60.0612 100.672 57.1204 94.022 52.9953 89.5503C52.4176 88.9235 51.8168 88.3371 51.1957 87.794C64.738 63.7859 89.1795 41.5082 114.274 32.0187C115.764 31.4554 116.515 29.7886 115.952 28.2951C115.389 26.8046 113.719 26.0536 112.229 26.6169C86.0539 36.5136 60.5408 59.6781 46.311 84.703ZM48.3937 93.1006C47.9026 94.1029 47.4288 95.1082 46.9781 96.1135C44.8954 100.744 41.7872 113.602 42.9485 123.057C43.5638 128.06 45.271 132.208 50.1471 132.078C52.539 132.014 54.1104 130.322 55.1677 127.953C56.5716 124.813 57.0714 120.555 56.849 116.023C56.4994 108.991 54.3762 101.296 50.6382 95.8535C49.9478 94.8482 49.1997 93.921 48.3937 93.1006Z" fill="#35312B"/>
<path fill-rule="evenodd" clip-rule="evenodd" d="M94.9307 68.1491C97.1839 55.0083 105.801 41.0269 115.059 31.3382C116.16 30.1856 116.119 28.357 114.967 27.2536C113.814 26.153 111.983 26.1934 110.882 27.346C100.879 37.8176 91.6693 52.9746 89.237 67.1727C88.9684 68.7441 90.0258 70.2376 91.5972 70.5063C93.1687 70.7749 94.662 69.7206 94.9307 68.1491Z" fill="#35312B"/>
<path fill-rule="evenodd" clip-rule="evenodd" d="M111.131 26.7958C101.612 32.2295 87.0126 32.9401 76.3706 30.1843C74.8251 29.7856 73.2479 30.7159 72.8493 32.2584C72.4506 33.801 73.378 35.3782 74.9234 35.7798C86.8885 38.8736 103.293 37.9232 113.996 31.8136C115.38 31.0249 115.862 29.257 115.071 27.8733C114.279 26.4896 112.514 26.0072 111.131 26.7958Z" fill="#35312B"/>
</g>
<path fill-rule="evenodd" clip-rule="evenodd" d="M135.834 13.3307C135.806 12.7443 135.811 12.1734 135.839 11.6374C135.933 10.0256 137.431 10.0312 137.548 10.0334C137.792 10.0389 138.88 10.1077 139.14 11.3644C139.157 11.4393 139.196 11.9819 139.207 12.1911C139.229 12.6372 139.24 13.0755 139.179 13.5155C139.235 14.2617 139.357 15.0296 139.59 15.752C139.928 16.8184 140.477 17.8027 141.471 18.327C143.246 19.2702 145.582 19.2319 147.535 19.4716C148.351 19.5715 148.972 20.2517 149 21.0728C149.022 21.8945 148.445 22.6114 147.635 22.7606C145.194 23.2122 142.386 25.4321 140.6 27.2198C140.05 27.7691 139.434 29.0774 138.746 29.9152C138.192 30.5865 137.576 31.0365 136.993 31.2151C136.766 31.2845 135.506 31.5375 134.94 30.2336C134.785 29.8675 134.236 27.95 134.186 27.7314C133.886 26.4786 133.459 25.3594 132.621 24.363C131.894 23.4991 131.012 22.7445 129.952 22.3262C129.525 22.1575 129.081 22.0294 128.637 21.8973C128.482 21.8784 128.044 21.823 127.888 21.7703C127.572 21.6648 127.339 21.4995 127.173 21.3347C126.856 21.0229 126.695 20.6506 126.668 20.2267C126.645 19.9471 126.684 19.6153 126.884 19.2474C127.034 18.9861 127.372 18.5927 127.983 18.3375C128.621 18.0706 129.991 17.8171 130.235 17.7511C131.933 17.2939 133.598 16.5987 134.901 15.3936C135.551 14.7911 135.7 14.1413 135.834 13.3307ZM136.921 18.049C137.576 19.4061 138.552 20.5485 139.912 21.2681C140.472 21.5672 141.082 21.7941 141.715 21.9706C140.411 22.8783 139.201 23.9102 138.241 24.8668C137.931 25.178 137.592 25.6818 137.232 26.235C136.81 24.758 136.189 23.4314 135.168 22.2175C134.563 21.5017 133.88 20.8476 133.12 20.3022C134.496 19.7573 135.8 19.0283 136.921 18.049Z" fill="#35312B"/>
</svg>
