<svg width="54" height="54" viewBox="0 0 54 54" fill="none" xmlns="http://www.w3.org/2000/svg">
<path d="M19 21.6667L27.6883 28.1829C28.8043 29.0197 30.3765 28.8552 31.2952 27.8056L48.3333 8.33334" stroke="#000E55" stroke-width="5.33333" stroke-linecap="round"/>
<path d="M51 27C51 32.0147 49.4293 36.9032 46.5083 40.9795C43.5875 45.0557 39.4629 48.1144 34.7147 49.7264C29.9661 51.3381 24.832 51.4221 20.0332 49.9667C15.2345 48.5109 11.0122 45.5885 7.95952 41.6104C4.9068 37.632 3.17694 32.7973 3.01286 27.7853C2.84878 22.7733 4.25875 17.8358 7.04472 13.6663C9.83072 9.49681 13.8528 6.30467 18.546 4.53827C23.2392 2.77185 28.368 2.5199 33.2117 3.81779" stroke="#000E55" stroke-width="5.33333" stroke-linecap="round"/>
</svg>
