<svg width="33" height="33" viewBox="0 0 33 33" fill="none" xmlns="http://www.w3.org/2000/svg">
<path d="M8.47254 2.25452C9.01478 2.25452 9.45436 2.6941 9.45436 3.23633V5.65815L11.7069 5.20766C13.8676 4.77551 16.1073 4.98114 18.1531 5.7995L18.6942 6.01591C20.5595 6.76202 22.6124 6.90136 24.5614 6.4141C25.3874 6.2076 26.0508 7.10287 25.6127 7.83297L23.9391 10.6225C23.492 11.3676 23.2684 11.7401 23.2154 12.1453C23.1934 12.3144 23.1934 12.4856 23.2154 12.6546C23.2684 13.0598 23.492 13.4324 23.9391 14.1775L25.982 17.5825C26.3889 18.2606 26.0251 19.1392 25.2578 19.331L25.1268 19.3637C22.8102 19.9428 20.3702 19.7772 18.1531 18.8904C16.1073 18.072 13.8676 17.8665 11.7069 18.2986L9.45436 18.7491V29.4182C9.45436 29.9604 9.01478 30.4 8.47254 30.4C7.9303 30.4 7.49072 29.9604 7.49072 29.4182V3.23633C7.49072 2.6941 7.9303 2.25452 8.47254 2.25452Z" fill="white"/>
</svg>
