<svg width="19" height="18" viewBox="0 0 19 18" fill="none" xmlns="http://www.w3.org/2000/svg">
<path d="M12.5227 6.35225C12.303 6.13258 11.9469 6.13258 11.7273 6.35225C11.5076 6.57192 11.5076 6.92808 11.7273 7.14775L11.8559 7.27642C12.3672 7.7877 12.7098 8.13195 12.9315 8.42257C13.1433 8.70015 13.1912 8.86177 13.1912 9C13.1912 9.13822 13.1433 9.29985 12.9315 9.57742C12.7098 9.86805 12.3672 10.2123 11.8559 10.7236L11.7273 10.8523C11.5076 11.0719 11.5076 11.428 11.7273 11.6477C11.9469 11.8674 12.303 11.8674 12.5227 11.6477L12.679 11.4915C13.1555 11.015 13.5528 10.6177 13.8258 10.2598C14.1141 9.88215 14.3162 9.48307 14.3162 9C14.3162 8.51692 14.1141 8.11785 13.8258 7.74015C13.5528 7.3823 13.1555 6.98498 12.679 6.50851L12.5227 6.35225Z" fill="white"/>
<path d="M10.6162 4.83473C10.9163 4.91514 11.0943 5.22358 11.0139 5.52365L9.07277 12.7681C8.99237 13.0682 8.6839 13.2463 8.38382 13.1659C8.08375 13.0854 7.9057 12.777 7.98611 12.4769L9.92725 5.23248C10.0076 4.93241 10.3161 4.75433 10.6162 4.83473Z" fill="white"/>
<path d="M7.27302 6.35225C7.05334 6.13258 6.69719 6.13258 6.47752 6.35225L6.32126 6.50851C5.84476 6.98498 5.4474 7.3823 5.17439 7.74015C4.88621 8.11785 4.68408 8.51692 4.68408 9C4.68408 9.48307 4.88621 9.88215 5.17439 10.2598C5.4474 10.6177 5.84474 11.015 6.32125 11.4915L6.47752 11.6477C6.69719 11.8674 7.05334 11.8674 7.27302 11.6477C7.49268 11.428 7.49268 11.0719 7.27302 10.8523L7.14433 10.7236C6.63309 10.2123 6.29051 9.86805 6.06878 9.57742C5.85696 9.29985 5.80908 9.13822 5.80908 9C5.80908 8.86177 5.85696 8.70015 6.06878 8.42257C6.29051 8.13195 6.63309 7.7877 7.14433 7.27642L7.27302 7.14775C7.49268 6.92808 7.49268 6.57192 7.27302 6.35225Z" fill="white"/>
<path fill-rule="evenodd" clip-rule="evenodd" d="M9.5 0.9375C5.0472 0.9375 1.4375 4.5472 1.4375 9C1.4375 13.4528 5.0472 17.0625 9.5 17.0625C13.9528 17.0625 17.5625 13.4528 17.5625 9C17.5625 4.5472 13.9528 0.9375 9.5 0.9375ZM2.5625 9C2.5625 5.16853 5.66853 2.0625 9.5 2.0625C13.3315 2.0625 16.4375 5.16853 16.4375 9C16.4375 12.8315 13.3315 15.9375 9.5 15.9375C5.66853 15.9375 2.5625 12.8315 2.5625 9Z" fill="white"/>
</svg>
