<svg width="35" height="15" viewBox="0 0 35 15" fill="none" xmlns="http://www.w3.org/2000/svg">
<path fill-rule="evenodd" clip-rule="evenodd" d="M16.1989 11.4736V7.41688H18.2927C19.1506 7.41688 19.8748 7.1294 20.4651 6.56242L20.6068 6.41867C21.6852 5.24478 21.6143 3.41606 20.4651 2.33001C19.8905 1.75504 19.1034 1.4436 18.2927 1.45957H14.9316V11.4736H16.1989ZM16.1991 6.18701V2.68929H18.3246C18.7812 2.68929 19.2142 2.86497 19.537 3.1844C20.2219 3.85519 20.2376 4.97319 19.5764 5.66794C19.2536 6.01133 18.797 6.20298 18.3246 6.18701H16.1991ZM26.5181 5.15691C25.975 4.65381 25.2351 4.39827 24.2984 4.39827C23.0942 4.39827 22.189 4.84546 21.5907 5.73187L22.7085 6.4426C23.1178 5.83569 23.6766 5.53223 24.385 5.53223C24.8337 5.53223 25.2666 5.69993 25.6051 6.00339C25.9357 6.29087 26.1246 6.70613 26.1246 7.14534V7.44081C25.6366 7.1693 25.0226 7.02555 24.267 7.02555C23.3854 7.02555 22.677 7.23318 22.1496 7.65642C21.6222 8.07966 21.3546 8.63866 21.3546 9.34939C21.3389 9.99623 21.6144 10.6111 22.1024 11.0264C22.5983 11.4736 23.228 11.6972 23.9679 11.6972C24.8416 11.6972 25.5342 11.3059 26.0616 10.5233H26.1167V11.4736H27.3289V7.24915C27.3289 6.36274 27.0613 5.66 26.5181 5.15691ZM23.0786 10.2119C22.8188 10.0202 22.6614 9.70877 22.6614 9.37337C22.6614 8.99804 22.8346 8.6866 23.1731 8.43904C23.5195 8.19149 23.9525 8.06372 24.4642 8.06372C25.1727 8.05573 25.7238 8.21545 26.1174 8.53487C26.1174 9.0779 25.9048 9.54905 25.4876 9.94834C25.1097 10.3316 24.598 10.5473 24.0627 10.5473C23.7084 10.5552 23.362 10.4355 23.0786 10.2119ZM30.0523 14.4842L34.2871 4.62186H32.9096L30.9497 9.54103H30.9261L28.9189 4.62186H27.5414L30.32 11.0344L28.7457 14.4842H30.0523Z" fill="#3C4043"/>
<path d="M11.8238 6.537C11.8238 6.1457 11.7923 5.75441 11.7293 5.37109H6.38477V7.58313H9.44668C9.32074 8.29385 8.91143 8.93271 8.31322 9.33199V10.7694H10.1393C11.2098 9.7712 11.8238 8.29385 11.8238 6.537Z" fill="#4285F4"/>
<path d="M6.38347 12.1594C7.91049 12.1594 9.20137 11.6483 10.1381 10.7699L8.31192 9.33245C7.80029 9.68382 7.14698 9.88347 6.38347 9.88347C4.90368 9.88347 3.65215 8.86928 3.20349 7.51172H1.32227V8.99706C2.28256 10.9376 4.24249 12.1594 6.38347 12.1594Z" fill="#34A853"/>
<path d="M3.20452 7.51148C2.96834 6.80075 2.96834 6.02614 3.20452 5.30743V3.83008H1.32299C0.512127 5.45117 0.512127 7.36773 1.32299 8.98883L3.20452 7.51148Z" fill="#FBBC04"/>
<path d="M6.38347 2.93642C7.19421 2.92045 7.97346 3.23189 8.55593 3.79888L10.1774 2.15383C9.14627 1.17957 7.79242 0.644532 6.38347 0.660504C4.24249 0.660504 2.28256 1.8903 1.32227 3.83082L3.20349 5.31615C3.65215 3.9506 4.90368 2.93642 6.38347 2.93642Z" fill="#EA4335"/>
</svg>
