<svg width="97" height="36" viewBox="0 0 97 36" fill="none" xmlns="http://www.w3.org/2000/svg">
<path d="M78.1951 25.6003L73.2952 21.718C73.2013 21.6397 73.0761 21.5928 72.9352 21.5928H62.6032C62.2901 21.5928 62.0239 21.8589 62.0239 22.172V34.7426C62.0239 35.0713 62.2901 35.3218 62.6032 35.3218H77.835C78.1481 35.3218 78.4143 35.0713 78.4143 34.7426V26.0543C78.4143 25.8665 78.3203 25.7099 78.1951 25.6003Z" fill="#0A14C5"/>
<path d="M96.9171 25.2067L89.3091 12.0256C89.1526 11.7594 88.7925 11.6655 88.5263 11.8221L80.9965 16.174C80.84 16.2523 80.7304 16.4088 80.6991 16.581L79.7911 22.7489C79.7754 22.8898 79.7911 23.0151 79.8694 23.1246L85.0354 32.079C85.1919 32.3608 85.5363 32.4547 85.8181 32.2982L96.7137 26.0051C96.9798 25.8485 97.0893 25.4885 96.9171 25.2067Z" fill="#0A14C5"/>
<path d="M62.3214 14.2659L69.8513 18.6179C70.0078 18.6962 70.18 18.7118 70.3522 18.6492L76.16 16.348C76.2696 16.301 76.3792 16.2227 76.4418 16.0975L81.6078 7.15877C81.7644 6.87699 81.6705 6.51693 81.3887 6.36039L70.5088 0.082921C70.227 -0.0892789 69.8826 0.0203009 69.7104 0.286428L62.1023 13.4676C61.9457 13.7493 62.0397 14.1094 62.3214 14.2659Z" fill="#0A14C5"/>
<path d="M8.06209 26.3038C8.06209 28.5477 8.08818 30.5201 8.14036 32.2213C7.71247 31.4281 6.99235 30.207 5.98003 28.5581L2.56737 23.126H0V35.3209H2.22294V32.143C2.22294 29.4817 2.20208 27.5092 2.16033 26.2256C2.68215 27.217 3.40746 28.4381 4.3363 29.8887L7.7177 35.3209H10.3007V23.126H8.06209V26.3038Z" fill="#0A14C5"/>
<path fill-rule="evenodd" clip-rule="evenodd" d="M19.3023 27.5728C20.0955 28.4285 20.4921 29.5557 20.4921 30.9541V31.4551H13.8702C13.9537 32.1961 14.1937 32.7544 14.5903 33.1301C14.9869 33.4954 15.5139 33.678 16.1714 33.678C17.1524 33.678 17.8256 33.2658 18.1908 32.4413H20.2729C20.0433 33.3284 19.5632 34.0329 18.8327 34.5547C18.1021 35.0661 17.2098 35.3218 16.1557 35.3218C14.8408 35.3218 13.7763 34.9095 12.9622 34.0851C12.1586 33.2606 11.7568 32.1648 11.7568 30.7976C11.7568 29.4409 12.1534 28.3451 12.9466 27.5101C13.7606 26.6857 14.8199 26.2734 16.1244 26.2734C17.4603 26.2734 18.5196 26.7065 19.3023 27.5728ZM18.3317 29.9836C18.2378 29.3469 17.9978 28.8408 17.6116 28.4651C17.2255 28.0998 16.7246 27.9172 16.1088 27.9172C14.8356 27.9172 14.0998 28.606 13.9015 29.9836H18.3317Z" fill="#0A14C5"/>
<path d="M24.2962 23.8467H22.1515V26.414H20.7896V28.0578H22.1515V33.0672C22.1515 33.8499 22.3706 34.4239 22.809 34.7892C23.2577 35.144 23.957 35.3215 24.9067 35.3215C25.1989 35.3215 25.5799 35.3006 26.0495 35.2588V33.6777C25.5694 33.6882 25.0945 33.6934 24.6249 33.6934C24.4371 33.6934 24.2962 33.5368 24.2962 33.349C24.2962 31.5852 24.2962 29.8215 24.2962 28.0578H26.0495V26.414H24.2962V23.8467Z" fill="#0A14C5"/>
<path fill-rule="evenodd" clip-rule="evenodd" d="M51.4555 27.4945C52.28 28.319 52.6923 29.42 52.6923 30.7976C52.6923 32.1648 52.28 33.2606 51.4555 34.0851C50.6311 34.9095 49.5457 35.3218 48.1994 35.3218C46.8531 35.3218 45.7678 34.9095 44.9433 34.0851C44.1084 33.271 43.6909 32.1752 43.6909 30.7976C43.6909 29.4304 44.1084 28.3346 44.9433 27.5101C45.7678 26.6857 46.8531 26.2734 48.1994 26.2734C49.5457 26.2734 50.6311 26.6805 51.4555 27.4945ZM50.5006 30.7976C50.5006 29.9209 50.2971 29.2374 49.8901 28.7469C49.4831 28.2668 48.9195 28.0267 48.1994 28.0267C47.4793 28.0267 46.9158 28.2668 46.5087 28.7469C46.1122 29.2269 45.9139 29.9105 45.9139 30.7976C45.9139 31.6951 46.1122 32.3839 46.5087 32.864C46.9158 33.3493 47.4793 33.678 48.1994 33.678C48.9195 33.678 49.4831 33.3336 49.8901 32.8483C50.2971 32.3683 50.5006 31.6847 50.5006 30.7976Z" fill="#0A14C5"/>
<path fill-rule="evenodd" clip-rule="evenodd" d="M1.25236 11.5265C0.417454 10.7124 0 9.6166 0 8.23901C0 6.86141 0.417454 5.76559 1.25236 4.95155C2.0664 4.12708 3.15179 3.71484 4.50851 3.71484C5.8548 3.71484 6.94019 4.12186 7.76467 4.9359C8.58914 5.74994 9.00136 6.85097 9.00136 8.23901C9.00136 8.3225 8.99616 8.40599 8.98573 8.48948V8.14508V11.1351H17.7992C17.2043 10.3732 16.9069 9.4131 16.9069 8.25466C16.9069 6.87706 17.3244 5.78124 18.1593 4.96721C18.9733 4.14273 20.0587 3.7305 21.4154 3.7305C22.7617 3.7305 23.8471 4.13752 24.6716 4.95155C25.4856 5.76559 25.8926 6.86662 25.8926 8.25466C25.8926 9.61139 25.4856 10.702 24.6716 11.5265C24.562 11.6517 24.3272 11.8709 23.9671 12.09C22.9339 12.7475 21.979 12.7788 21.4624 12.7632H8.98573C8.87615 13.8277 8.40651 14.72 7.73336 15.4088C6.90889 16.2333 5.83917 16.6455 4.52418 16.6455C3.45968 16.6455 2.56212 16.3846 1.83157 15.8628C1.09059 15.341 0.605332 14.6417 0.375732 13.7651H2.45775C2.83346 14.5895 3.51183 15.0018 4.49284 15.0018C5.16077 15.0018 5.69306 14.8139 6.08964 14.4382C6.49666 14.0625 6.71582 13.4989 6.79409 12.7632H4.35197C3.07873 12.7319 2.04553 12.3196 1.25236 11.5265ZM19.1142 8.25466C19.1142 9.14175 19.3177 9.82533 19.7247 10.3054C20.1317 10.7907 20.6796 11.1351 21.3997 11.1351C22.1199 11.1351 22.6991 10.7907 23.0904 10.3054C23.4975 9.8149 23.701 9.13131 23.701 8.25466C23.701 7.36757 23.4975 6.68399 23.0904 6.20391C22.6939 5.71341 22.1355 5.46815 21.4154 5.46815C20.6953 5.46815 20.1317 5.70819 19.7247 6.18826C19.3177 6.66834 19.1142 7.35713 19.1142 8.25466ZM2.2073 8.23901C2.2073 9.13653 2.4108 9.82533 2.81782 10.3054C3.0996 10.6342 3.44399 10.9003 3.86666 11.0255C4.1641 11.1194 4.39892 11.1194 4.53982 11.1194C4.60243 11.1351 4.72766 11.1351 4.80594 11.1351H6.79409V8.14508C6.78366 7.31017 6.58536 6.6579 6.19921 6.18826C5.79219 5.70819 5.22862 5.46815 4.50851 5.46815C3.78841 5.46815 3.22483 5.70297 2.81782 6.17261C2.4108 6.66312 2.2073 7.35191 2.2073 8.23901Z" fill="#0A14C5"/>
<path d="M50.0943 11.0724H44.3334C44.3543 10.9576 44.3648 10.8428 44.3648 10.728V3.73047H42.2201V10.368C42.2201 10.7594 41.907 11.0724 41.5156 11.0724H37.3985H35.8017H31.6689C31.2932 11.0724 30.9645 10.7594 30.9645 10.368V3.73047H28.8198V10.728C28.8198 11.8552 29.7434 12.7631 30.8549 12.7631H35.8017H37.3985H42.3297C43.1124 12.7631 43.7856 12.3248 44.13 11.6986V12.7631H50.6579C51.785 12.7631 52.693 11.8552 52.693 10.728V3.73047H50.5483V10.6185C50.5483 10.8689 50.3448 11.0724 50.0943 11.0724Z" fill="#0A14C5"/>
<path d="M36.8036 28.6364V30.4367H40.3258C40.1484 31.3864 39.757 32.1117 39.1517 32.6127C38.5464 33.1136 37.7533 33.3641 36.7723 33.3641C35.6973 33.3641 34.8154 32.9988 34.1266 32.2683C33.4483 31.5273 33.1091 30.5097 33.1091 29.2156C33.1091 27.8902 33.4378 26.8674 34.0953 26.1473C34.7528 25.4272 35.6503 25.0672 36.7879 25.0672C37.675 25.0672 38.416 25.2602 39.0108 25.6464C39.6057 26.043 39.9919 26.5752 40.1693 27.2432H42.5175C42.2879 26.0012 41.6669 24.9993 40.6545 24.2375C39.6527 23.4861 38.3638 23.1104 36.7879 23.1104C34.9302 23.1104 33.4483 23.6635 32.342 24.7697C31.2358 25.8656 30.6826 27.3475 30.6826 29.2156C30.6826 31.0315 31.2462 32.5031 32.3733 33.6302C33.4796 34.7573 34.9459 35.3209 36.7723 35.3209C38.5986 35.3209 40.0492 34.773 41.1242 33.6772C42.1887 32.6022 42.721 31.115 42.721 29.2156C42.721 29.2052 42.7105 29.0121 42.6896 28.6364H36.8036Z" fill="#0A14C5"/>
<path d="M24.5461 1.58696H18.5034V0.00585938H24.5461V1.58696Z" fill="#0A14C5"/>
<path d="M39.6213 1.58696H33.5786V0.00585938H39.6213V1.58696Z" fill="#0A14C5"/>
<path d="M52.6935 1.58696H50.5488V0.00585938H52.6935V1.58696Z" fill="#0A14C5"/>
</svg>
