<svg width="32" height="20" viewBox="0 0 32 20" fill="none" xmlns="http://www.w3.org/2000/svg">
<path fill-rule="evenodd" clip-rule="evenodd" d="M15.7472 17.272C14.1105 18.6516 11.9873 19.4845 9.66725 19.4845C4.49052 19.4845 0.293945 15.3378 0.293945 10.2227C0.293945 5.10757 4.49052 0.960938 9.66725 0.960938C11.9873 0.960938 14.1105 1.7938 15.7472 3.17345C17.384 1.7938 19.5072 0.960938 21.8272 0.960938C27.004 0.960938 31.2005 5.10757 31.2005 10.2227C31.2005 15.3378 27.004 19.4845 21.8272 19.4845C19.5072 19.4845 17.384 18.6516 15.7472 17.272Z" fill="#ED0006"/>
<path fill-rule="evenodd" clip-rule="evenodd" d="M15.7471 17.272C17.7625 15.5732 19.0404 13.0454 19.0404 10.2227C19.0404 7.4 17.7625 4.87223 15.7471 3.17345C17.3838 1.7938 19.507 0.960938 21.827 0.960938C27.0038 0.960938 31.2004 5.10757 31.2004 10.2227C31.2004 15.3378 27.0038 19.4845 21.827 19.4845C19.507 19.4845 17.3838 18.6516 15.7471 17.272Z" fill="#F9A000"/>
<path fill-rule="evenodd" clip-rule="evenodd" d="M15.7474 17.2723C17.7628 15.5735 19.0407 13.0457 19.0407 10.2231C19.0407 7.40037 17.7628 4.87261 15.7474 3.17383C13.732 4.87261 12.4541 7.40037 12.4541 10.2231C12.4541 13.0457 13.732 15.5735 15.7474 17.2723Z" fill="#FF5E00"/>
</svg>
