<svg width="24" height="24" viewBox="0 0 24 24" fill="none" xmlns="http://www.w3.org/2000/svg">
<path d="M18 12C14.7 12 12 14.7 12 18C12 21.3 14.7 24 18 24C21.3 24 24 21.3 24 18C24 14.7 21.3 12 18 12ZM20.775 17.025L17.775 20.025C17.625 20.175 17.475 20.25 17.25 20.25C17.025 20.25 16.875 20.175 16.725 20.025L15.225 18.525C14.925 18.225 14.925 17.775 15.225 17.475C15.525 17.175 15.975 17.175 16.275 17.475L17.25 18.45L19.725 15.975C20.025 15.675 20.475 15.675 20.775 15.975C21.075 16.275 21.075 16.725 20.775 17.025Z" fill="white"/>
<path d="M18.7499 3H5.2499C3.5249 3 2.0999 4.125 1.6499 5.7L11.9999 12.6L22.3499 5.7C21.8999 4.125 20.4749 3 18.7499 3Z" fill="white"/>
<path d="M17.8501 10.5C17.9251 10.5 17.9251 10.5 18.0001 10.5C19.7251 10.5 21.2251 11.1 22.5001 12V7.42505L17.8501 10.5Z" fill="white"/>
<path d="M11.55 14.1L1.5 7.42505V17.25C1.5 19.35 3.15 21 5.25 21H11.1C10.725 20.1 10.5 19.05 10.5 18C10.5 16.575 10.875 15.225 11.55 14.1Z" fill="white"/>
</svg>
