<svg width="56" height="56" viewBox="0 0 56 56" fill="none" xmlns="http://www.w3.org/2000/svg">
<path d="M45.1562 13.6679H48.7829C48.2763 12.9479 47.7429 12.2812 47.1829 11.6146L45.1562 13.6679Z" fill="#000E55"/>
<path d="M44.3868 8.7875C43.7202 8.2275 43.0535 7.69417 42.3335 7.1875V10.8142L44.3868 8.7875Z" fill="#000E55"/>
<path d="M47.2124 11.6171L55.0791 3.75042C55.8524 2.97708 55.8524 1.69708 55.0791 0.92375C54.3057 0.150417 53.0257 0.150417 52.2524 0.92375L44.3857 8.79042C45.3991 9.67042 46.3324 10.6304 47.2124 11.6171Z" fill="#000E55"/>
<path d="M42.3381 5C42.3381 3.90667 41.4314 3 40.3381 3C39.2714 3 38.4181 3.85333 38.3647 4.89333C39.7514 5.56 41.0847 6.30667 42.3381 7.18667V5Z" fill="#000E55"/>
<path d="M53.0053 15.6666C53.0053 14.5733 52.0987 13.6666 51.0053 13.6666H48.792C49.672 14.92 50.4453 16.2533 51.0853 17.64C52.152 17.5866 53.0053 16.7333 53.0053 15.6666Z" fill="#000E55"/>
<path d="M29 36.3355H29.8C30.84 36.3355 31.6667 35.4021 31.6667 34.2555C31.6667 32.8155 31.2667 32.6021 30.36 32.2821L29 31.8021V36.3355Z" fill="#000E55"/>
<path d="M51.1068 17.64C51.0802 17.64 51.0535 17.6666 51.0002 17.6666H40.3335C40.0668 17.6666 39.8268 17.6133 39.5602 17.5066C39.0802 17.2933 38.6802 16.92 38.4668 16.4133C38.3868 16.1733 38.3335 15.9333 38.3335 15.6666V4.99998C38.3335 4.97331 38.3602 4.94665 38.3602 4.89331C34.8935 3.26665 31.0535 2.33331 27.0002 2.33331C12.2802 2.33331 0.333496 14.28 0.333496 29C0.333496 43.72 12.2802 55.6666 27.0002 55.6666C41.7202 55.6666 53.6668 43.72 53.6668 29C53.6668 24.9466 52.7335 21.1066 51.1068 17.64ZM31.6668 28.52C33.3735 29.1066 35.6668 30.36 35.6668 34.28C35.6668 37.6133 33.0268 40.36 29.8002 40.36H29.0002V41.0266C29.0002 42.12 28.0935 43.0266 27.0002 43.0266C25.9068 43.0266 25.0002 42.12 25.0002 41.0266V40.36H24.7868C21.2402 40.36 18.3335 37.3733 18.3335 33.6933C18.3335 32.5733 19.2402 31.6666 20.3335 31.6666C21.4268 31.6666 22.3335 32.5733 22.3335 33.6666C22.3335 35.1333 23.4268 36.3333 24.7868 36.3333H25.0002V30.4133L22.3335 29.48C20.6268 28.8933 18.3335 27.64 18.3335 23.72C18.3335 20.3866 20.9735 17.64 24.2002 17.64H25.0002V17C25.0002 15.9066 25.9068 15 27.0002 15C28.0935 15 29.0002 15.9066 29.0002 17V17.6666H29.2135C32.7602 17.6666 35.6668 20.6533 35.6668 24.3333C35.6668 25.4266 34.7602 26.3333 33.6668 26.3333C32.5735 26.3333 31.6668 25.4266 31.6668 24.3333C31.6668 22.8666 30.5735 21.6666 29.2135 21.6666H29.0002V27.5866L31.6668 28.52Z" fill="#000E55"/>
<path d="M22.3335 23.7466C22.3335 25.1866 22.7335 25.4 23.6402 25.72L25.0002 26.2V21.6666H24.2002C23.1868 21.6666 22.3335 22.6 22.3335 23.7466Z" fill="#000E55"/>
</svg>
