<svg width="16" height="20" viewBox="0 0 16 20" fill="none" xmlns="http://www.w3.org/2000/svg">
<path fill-rule="evenodd" clip-rule="evenodd" d="M5.20228 18.5105L5.5074 16.5073L4.82771 16.4909H1.58203L3.83766 1.70853C3.84469 1.66377 3.86741 1.62221 3.90058 1.59265C3.93392 1.56309 3.97641 1.54688 4.02086 1.54688H9.49357C11.3106 1.54688 12.5644 1.93758 13.2189 2.70885C13.5258 3.07067 13.7213 3.44887 13.8159 3.86491C13.9151 4.30156 13.9167 4.82317 13.82 5.45948L13.813 5.50576V5.91353L14.1199 6.09326C14.3783 6.23498 14.5837 6.39714 14.7412 6.58277C15.0037 6.89223 15.1735 7.28547 15.2452 7.75151C15.3194 8.23089 15.2949 8.80149 15.1735 9.44742C15.0334 10.1903 14.8071 10.8374 14.5013 11.3668C14.2202 11.8547 13.862 12.2594 13.4366 12.5729C13.0305 12.8709 12.548 13.097 12.0025 13.2418C11.4738 13.384 10.8711 13.4558 10.21 13.4558H9.78415C9.47968 13.4558 9.18388 13.5691 8.95164 13.7724C8.71876 13.9798 8.56481 14.2632 8.51758 14.5732L8.48538 14.7536L7.94624 18.2844L7.92189 18.414C7.91535 18.4551 7.90424 18.4755 7.88789 18.4893C7.87335 18.502 7.85243 18.5105 7.832 18.5105H5.20228Z" fill="#28356A"/>
<path fill-rule="evenodd" clip-rule="evenodd" d="M14.4109 5.55273C14.3947 5.66067 14.376 5.77097 14.355 5.88432C13.6333 9.71432 11.1641 11.0374 8.0106 11.0374H6.40492C6.01923 11.0374 5.69417 11.3268 5.6342 11.72L4.57927 18.6363C4.54021 18.8946 4.73273 19.1272 4.98473 19.1272H7.83263C8.16978 19.1272 8.45627 18.874 8.50938 18.5302L8.53733 18.3807L9.07353 14.8637L9.10802 14.6708C9.16048 14.3259 9.44762 14.0725 9.78477 14.0725H10.2107C12.9698 14.0725 15.1298 12.9148 15.7612 9.56416C16.0248 8.16452 15.8883 6.99579 15.1905 6.17384C14.9793 5.92604 14.7174 5.7203 14.4109 5.55273Z" fill="#298FC2"/>
<path fill-rule="evenodd" clip-rule="evenodd" d="M13.6547 5.24234C13.5444 5.20907 13.4306 5.179 13.3139 5.1518C13.1966 5.12528 13.0765 5.1018 12.9527 5.0812C12.5198 5.0089 12.0454 4.97461 11.5373 4.97461H7.24781C7.14207 4.97461 7.04172 4.99927 6.952 5.04387C6.75409 5.14217 6.60717 5.33575 6.57154 5.57274L5.65896 11.5466L5.63281 11.7208C5.69279 11.3275 6.01785 11.0382 6.40354 11.0382H8.00922C11.1627 11.0382 13.6319 9.7144 14.3536 5.88507C14.3752 5.77172 14.3934 5.66142 14.4095 5.55349C14.227 5.45332 14.0292 5.36768 13.8163 5.29471C13.7637 5.27663 13.7094 5.25923 13.6547 5.24234Z" fill="#22284F"/>
<path fill-rule="evenodd" clip-rule="evenodd" d="M6.57217 5.57252C6.6078 5.33553 6.75472 5.14195 6.95263 5.04432C7.04301 4.99955 7.1427 4.97489 7.24844 4.97489H11.5379C12.046 4.97489 12.5205 5.00935 12.9534 5.08165C13.0771 5.10209 13.1972 5.12573 13.3146 5.15225C13.4312 5.17928 13.545 5.20952 13.6553 5.24262C13.71 5.25952 13.7643 5.27708 13.8174 5.29448C14.0304 5.36745 14.2283 5.45377 14.4108 5.55326C14.6256 4.13791 14.409 3.17425 13.6687 2.30162C12.8524 1.34083 11.3792 0.929688 9.4941 0.929688H4.02123C3.63619 0.929688 3.3077 1.21904 3.24822 1.61295L0.968724 16.5473C0.923782 16.8428 1.14425 17.1093 1.43253 17.1093H4.81124L6.57217 5.57252Z" fill="#28356A"/>
</svg>
