<svg width="48" height="54" viewBox="0 0 48 54" fill="none" xmlns="http://www.w3.org/2000/svg">
<path d="M43.6149 4.90889L24.4683 0.0288903C24.2567 -0.0096301 24.0399 -0.0096301 23.8283 0.0288903C23.6515 0.00220685 23.4717 0.00220685 23.2949 0.0288903L4.0416 4.90889C2.82084 5.21363 1.74712 5.94017 1.01026 6.96006C0.273404 7.97995 -0.0791451 9.22752 0.0149374 10.4822L1.13494 25.1756C1.5835 31.0042 3.62013 36.5986 7.02375 41.3514C10.4274 46.1043 15.0679 49.8339 20.4416 52.1356L22.7883 53.1489C23.084 53.2721 23.4012 53.3356 23.7216 53.3356C24.042 53.3356 24.3592 53.2721 24.6549 53.1489L27.0016 52.1356C32.3753 49.8339 37.0158 46.1043 40.4195 41.3514C43.8231 36.5986 45.8597 31.0042 46.3083 25.1756L47.4283 10.4822C47.5334 9.25589 47.2111 8.03095 46.5161 7.01514C45.821 5.99933 44.7961 5.25518 43.6149 4.90889ZM33.7216 20.5889L23.0549 31.2556C22.807 31.5055 22.5121 31.7039 22.1871 31.8393C21.8622 31.9747 21.5136 32.0444 21.1616 32.0444C20.8096 32.0444 20.461 31.9747 20.1361 31.8393C19.8111 31.7039 19.5162 31.5055 19.2683 31.2556L13.9349 25.9222C13.4328 25.4201 13.1507 24.739 13.1507 24.0289C13.1507 23.3188 13.4328 22.6377 13.9349 22.1356C14.4371 21.6334 15.1181 21.3513 15.8283 21.3513C16.5384 21.3513 17.2195 21.6334 17.7216 22.1356L21.1616 25.6022L29.9349 16.8022C30.4371 16.3001 31.1181 16.018 31.8283 16.018C32.5384 16.018 33.2195 16.3001 33.7216 16.8022C34.2237 17.3044 34.5058 17.9854 34.5058 18.6956C34.5058 19.4057 34.2237 20.0867 33.7216 20.5889Z" fill="#000E55"/>
</svg>
