<svg width="44" height="44" viewBox="0 0 44 44" fill="none" xmlns="http://www.w3.org/2000/svg">
<g clip-path="url(#clip0_14_15696)">
<path d="M40.6226 38.6527H3.0126C1.46802 38.6527 0.210449 37.395 0.210449 35.842V7.78653C0.210449 6.24195 1.46802 4.98438 3.0126 4.98438H40.614C42.1671 4.98438 43.4246 6.24195 43.4246 7.78653V35.842C43.4247 37.395 42.1671 38.6527 40.6226 38.6527Z" fill="#FFC738"/>
<path d="M40.6229 4.98438H21.8179V38.6527H40.6228C42.1758 38.6527 43.425 37.3951 43.425 35.8505V7.7866C43.425 6.24202 42.1675 4.98438 40.6229 4.98438Z" fill="#FFB42E"/>
<path d="M43.4247 22.3967V21.2404H28.325V16.1341L32.2245 12.2347H43.4247C43.4247 11.838 43.3825 11.4497 43.315 11.0784H31.9797C31.8277 11.0784 31.6758 11.1459 31.5746 11.2556L27.5063 15.3154H22.4V4.98438H21.2437V15.3068H16.1964L12.1366 11.247C12.0269 11.1373 11.8749 11.0698 11.723 11.0698H0.328582C0.261047 11.4496 0.218882 11.8378 0.218882 12.2261H11.4867L15.3101 16.0496V21.2234H0.210449V22.3797H15.3101V27.5536L11.4867 31.4024H0.218882C0.218882 31.7991 0.261118 32.1873 0.328582 32.5587H11.7314C11.8834 32.5587 12.0353 32.4911 12.145 32.3814L16.2048 28.3216H21.2521V38.6441H22.4084V28.3218H27.5148L31.583 32.3816C31.6842 32.4913 31.8362 32.5588 31.9881 32.5588H43.3234C43.391 32.179 43.4331 31.7908 43.4331 31.4025H32.216L28.3166 27.5031V22.3967H43.4247ZM27.1687 27.1655H16.4664V16.4632H27.1603V27.1655H27.1687Z" fill="#C66D4E"/>
<path d="M43.425 22.3967V21.2404H28.3253V16.1341L32.2247 12.2347H43.425C43.425 11.838 43.3827 11.4497 43.3153 11.0784H31.9799C31.828 11.0784 31.6761 11.1459 31.5748 11.2556L27.5066 15.3154H22.4002V4.98438H21.8179V16.4631H27.169V27.1654H21.8179V38.6442H22.4002V28.3218H27.5066L31.5748 32.3816C31.6761 32.4913 31.828 32.5588 31.9799 32.5588H43.3153C43.3828 32.179 43.425 31.7992 43.425 31.4025H32.2163L28.3169 27.5031V22.3967H43.425Z" fill="#AF5A35"/>
</g>
<defs>
<clipPath id="clip0_14_15696">
<rect width="43.2227" height="43.2227" fill="white" transform="translate(0.209961 0.209961)"/>
</clipPath>
</defs>
</svg>
