<svg width="54" height="54" viewBox="0 0 54 54" fill="none" xmlns="http://www.w3.org/2000/svg">
<path d="M26.6667 0C11.9627 0 0 11.9627 0 26.6667V37.7147C0 40.4453 2.392 42.6667 5.33333 42.6667H8C8.70724 42.6667 9.38552 42.3857 9.88562 41.8856C10.3857 41.3855 10.6667 40.7072 10.6667 40V26.2853C10.6667 25.5781 10.3857 24.8998 9.88562 24.3997C9.38552 23.8996 8.70724 23.6187 8 23.6187H5.57867C7.06133 13.2987 15.9413 5.33333 26.6667 5.33333C37.392 5.33333 46.272 13.2987 47.7547 23.6187H45.3333C44.6261 23.6187 43.9478 23.8996 43.4477 24.3997C42.9476 24.8998 42.6667 25.5781 42.6667 26.2853V42.6667C42.6667 45.608 40.2747 48 37.3333 48H32V45.3333H21.3333V53.3333H37.3333C43.216 53.3333 48 48.5493 48 42.6667C50.9413 42.6667 53.3333 40.4453 53.3333 37.7147V26.6667C53.3333 11.9627 41.3707 0 26.6667 0Z" fill="#000E55"/>
</svg>
