<svg width="45" height="45" viewBox="0 0 45 45" fill="none" xmlns="http://www.w3.org/2000/svg">
<g clip-path="url(#clip0_1_5534)">
<path d="M22.5 45C34.9264 45 45 34.9264 45 22.5C45 10.0736 34.9264 0 22.5 0C10.0736 0 0 10.0736 0 22.5C0 34.9264 10.0736 45 22.5 45Z" fill="#F0F0F0"/>
<path d="M12.7173 30.326L14.6738 43.6007C17.1112 44.5052 19.7477 45 22.4999 45C32.174 45 40.4213 38.8941 43.6003 30.326H12.7173Z" fill="black"/>
<path d="M12.7173 14.674L14.6738 1.39931C17.1112 0.494824 19.7477 0 22.4999 0C32.174 0 40.4213 6.10594 43.6003 14.674H12.7173Z" fill="#6DA544"/>
<path d="M0 22.5C0 32.1742 6.10603 40.4214 14.674 43.6005V1.39948C6.10603 4.57857 0 12.8258 0 22.5Z" fill="#A2001D"/>
</g>
<defs>
<clipPath id="clip0_1_5534">
<rect width="45" height="45" fill="white"/>
</clipPath>
</defs>
</svg>
