<svg width="33" height="33" viewBox="0 0 33 33" fill="none" xmlns="http://www.w3.org/2000/svg">
<path fill-rule="evenodd" clip-rule="evenodd" d="M25.124 18.5785C25.5075 18.195 26.129 18.195 26.5124 18.5785L29.1306 21.1967C29.5141 21.5801 29.5141 22.2016 29.1306 22.5851C28.7472 22.9685 28.1256 22.9685 27.7422 22.5851L26.8 21.6431V27.1272C26.8 27.6695 26.3605 28.109 25.8182 28.109C25.276 28.109 24.8364 27.6695 24.8364 27.1272V21.6431L23.8943 22.5851C23.5108 22.9685 22.8893 22.9685 22.5058 22.5851C22.1224 22.2016 22.1224 21.5801 22.5058 21.1967L25.124 18.5785Z" fill="white"/>
<path d="M14.0362 6.18176H19.2726C24.2094 6.18176 26.678 6.18176 28.2116 7.71545C29.3159 8.81972 29.6251 10.4086 29.7117 13.0545H3.59717C3.68374 10.4086 3.99292 8.81972 5.09719 7.71545C6.63089 6.18176 9.09933 6.18176 14.0362 6.18176Z" fill="white"/>
<path fill-rule="evenodd" clip-rule="evenodd" d="M14.0362 27.1272H19.2726C20.6548 27.1272 21.8436 27.1272 22.8726 27.0935V24.8182C22.2312 24.7468 21.6089 24.4653 21.1171 23.9736C19.9668 22.8233 19.9668 20.9583 21.1171 19.808L23.7353 17.1898C24.8856 16.0396 26.7505 16.0396 27.9008 17.1898L29.737 19.0262C29.7453 18.3056 29.7453 17.5178 29.7453 16.6544C29.7453 16.0759 29.7453 15.5312 29.7428 15.0181H3.56595C3.56348 15.5312 3.56348 16.0759 3.56348 16.6544C3.56348 21.5913 3.56348 24.0598 5.09717 25.5934C6.63087 27.1272 9.09931 27.1272 14.0362 27.1272ZM7.81802 21.8908C7.81802 21.3486 8.2576 20.909 8.79984 20.909H14.0362C14.5784 20.909 15.018 21.3486 15.018 21.8908C15.018 22.433 14.5784 22.8726 14.0362 22.8726H8.79984C8.2576 22.8726 7.81802 22.433 7.81802 21.8908ZM17.3089 20.909C16.7667 20.909 16.3271 21.3486 16.3271 21.8908C16.3271 22.433 16.7667 22.8726 17.3089 22.8726H19.2726C19.8148 22.8726 20.2544 22.433 20.2544 21.8908C20.2544 21.3486 19.8148 20.909 19.2726 20.909H17.3089Z" fill="white"/>
</svg>
