<svg width="34" height="12" viewBox="0 0 34 12" fill="none" xmlns="http://www.w3.org/2000/svg">
<path fill-rule="evenodd" clip-rule="evenodd" d="M8.86109 10.9297H6.0138L3.87868 2.54454C3.77734 2.15882 3.56216 1.81782 3.24564 1.65711C2.45573 1.25322 1.5853 0.931788 0.635742 0.769674V0.446845H5.2225C5.85554 0.446845 6.33032 0.931788 6.40945 1.49499L7.51727 7.5435L10.3632 0.446845H13.1313L8.86109 10.9297ZM14.7139 10.9297H12.0249L14.2392 0.446845H16.9282L14.7139 10.9297ZM20.4071 3.35092C20.4863 2.78632 20.961 2.46349 21.5149 2.46349C22.3854 2.38243 23.3335 2.54454 24.1248 2.94703L24.5996 0.690021C23.8083 0.367192 22.9379 0.205078 22.148 0.205078C19.5381 0.205078 17.639 1.65711 17.639 3.67235C17.639 5.20544 18.9842 6.01042 19.9337 6.49536C20.961 6.97891 21.3567 7.30174 21.2776 7.78528C21.2776 8.5106 20.4863 8.83343 19.6963 8.83343C18.7468 8.83343 17.7972 8.59166 16.9282 8.18777L16.4534 10.4462C17.403 10.8487 18.4303 11.0108 19.3798 11.0108C22.3062 11.0904 24.1248 9.6398 24.1248 7.46245C24.1248 4.7205 20.4071 4.55978 20.4071 3.35092ZM33.5357 10.9297L31.4006 0.446845H29.1072C28.6325 0.446845 28.1577 0.769674 27.9994 1.25322L24.0457 10.9297H26.8139L27.3664 9.39802H30.7676L31.0841 10.9297H33.5357ZM29.5029 3.26987L30.2928 7.22069H28.0786L29.5029 3.26987Z" fill="#172B85"/>
</svg>
